<svg id="Ebene_1" data-name="Ebene 1" xmlns="http://www.w3.org/2000/svg" viewBox="0 0 209.99 38.58"><defs><style>.cls-1{fill:#3cac4d;}</style></defs><path class="cls-1" d="M56.56,26h-.1l-.41,0-3.13-7.88a7.77,7.77,0,1,0-11.23-2.74l-11,9.3a7.44,7.44,0,0,0-2.3-1.24L29,17.56a6,6,0,0,0-.84-12,6,6,0,0,0-6.14,5.91,6,6,0,0,0,3.77,5.7l-.66,5.92a7.73,7.73,0,0,0-4.41,1.94l-8.39-6.13A6.39,6.39,0,0,0,11,12.17a6.31,6.31,0,0,0-4.47-1.95A6.38,6.38,0,0,0,6.31,23h.13a6.38,6.38,0,0,0,4-1.44l8.38,6.12a7.75,7.75,0,0,0,6.93,10.92h.15a7.75,7.75,0,0,0,6.83-11.41l11-9.3a7.69,7.69,0,0,0,4.62,1.64h.15a8.18,8.18,0,0,0,1.4-.12l3.12,7.83a5.4,5.4,0,0,0,3.3,9.59h.1a5.4,5.4,0,0,0,.1-10.8ZM45.26,14.9a4.54,4.54,0,0,1,.12-6.42,4.49,4.49,0,0,1,3.15-1.27h.09a4.54,4.54,0,0,1-.17,9.08A4.57,4.57,0,0,1,45.26,14.9Zm-14.8,16A4.53,4.53,0,0,1,22.66,34a4.55,4.55,0,0,1,.12-6.41,4.56,4.56,0,0,1,3.14-1.26H26A4.55,4.55,0,0,1,30.46,30.91Zm-4.4-17.35a2.84,2.84,0,0,1-.78-2,2.82,2.82,0,0,1,2.8-2.75h.06a2.81,2.81,0,0,1,2,.86,2.76,2.76,0,0,1,.78,2,2.72,2.72,0,0,1-.85,2,2.77,2.77,0,0,1-2,.79A2.82,2.82,0,0,1,26.06,13.56ZM6.37,19.75a3.16,3.16,0,0,1,.06-6.31h.06a3.16,3.16,0,1,1-.12,6.31ZM56.42,33.58a2.21,2.21,0,0,1-1.53-.66,2.13,2.13,0,0,1-.6-1.55,2.17,2.17,0,0,1,2.17-2.14h0a2.18,2.18,0,0,1-.08,4.35Z"/><circle class="cls-1" cx="61.35" cy="18.5" r="2.58" transform="translate(-2.72 17.38) rotate(-15.78)"/><circle class="cls-1" cx="8.41" cy="30.43" r="3.39" transform="translate(-2.21 0.7) rotate(-4.21)"/><path class="cls-1" d="M15.18,9.11a3.1,3.1,0,1,0-3-3.16A3.1,3.1,0,0,0,15.18,9.11Z"/><circle class="cls-1" cx="36.98" cy="2.62" r="2.62"/><circle class="cls-1" cx="43.24" cy="30.12" r="3.58" transform="matrix(0.09, -1, 1, 0.09, 9.19, 70.34)"/><path class="cls-1" d="M86.53,21.88H75.08v12.2a.75.75,0,0,1-.75.74h-1.9a.75.75,0,0,1-.75-.74V13.79c0-5,2.73-6.94,7.95-6.94,2.2,0,5.7.08,7.27.23a.52.52,0,0,1,.37.52V9.46a.41.41,0,0,1-.41.45h-7.2c-4,0-4.58,1.05-4.58,3.88V19H86.53a.75.75,0,0,1,.74.75v1.42A.74.74,0,0,1,86.53,21.88Z"/><path class="cls-1" d="M94.21,34.82H92.27a.71.71,0,0,1-.67-.74V7.49a.67.67,0,0,1,.67-.71h1.94a.68.68,0,0,1,.67.71V34.08A.71.71,0,0,1,94.21,34.82Z"/><path class="cls-1" d="M107.3,35.08c-5.49,0-8.28-3.61-8.28-9.1V23.15c0-5.48,2.79-9.1,8.28-9.1s8.31,3.62,8.31,9.1V26C115.61,31.47,112.78,35.08,107.3,35.08Zm5-11.93c0-3.8-1.53-6.23-5-6.23s-5,2.39-5,6.23V26c0,3.81,1.49,6.23,5,6.23s5-2.38,5-6.23Z"/><path class="cls-1" d="M144.1,15.21l-3.61,17.3c-.49,2.35-.9,2.57-3.14,2.57-1.93,0-2.46-.33-3-2.68l-3.25-12.68c-.07-.26-.07-.26-.18-.26s-.12,0-.19.26L127.43,32.4c-.55,2.16-1.11,2.68-3.05,2.68-2.24,0-2.65-.26-3.14-2.57l-3.61-17.3v-.15a.73.73,0,0,1,.71-.75h2a.67.67,0,0,1,.63.6l3.1,17c.07.45.18.45.3.45s.22-.11.29-.45l3.66-14.32a1.35,1.35,0,0,1,1.49-1.12h2.09a1.35,1.35,0,0,1,1.49,1.12l3.66,14.32c.07.34.18.45.29.45s.23,0,.3-.45l3.1-17a.68.68,0,0,1,.63-.6h2a.73.73,0,0,1,.7.75Z"/><path class="cls-1" d="M163.38,34.52a28,28,0,0,1-5.89.6c-4.47,0-10.55-2.2-10.55-11.41V18.23c0-9.36,6.08-11.41,10.55-11.41a28.29,28.29,0,0,1,5.89.59c.49.15.82.34.82.86v2.5c0,.45-.18.78-.74.78h-.08c-1.3-.11-3.84-.3-5.82-.3-3.13,0-5.4,1.68-5.4,7v5.48c0,5.18,2.27,7,5.4,7,2,0,4.52-.18,5.82-.3h.08c.56,0,.74.34.74.79v2.5C164.2,34.19,163.87,34.38,163.38,34.52Z"/><path class="cls-1" d="M175.46,35.12c-5.85,0-8.91-3.95-8.91-9.28v-3c0-5.33,3.06-9.28,8.91-9.28s8.92,4,8.92,9.28v3C184.38,31.17,181.32,35.12,175.46,35.12Zm4-12.31c0-3-1.38-5-4-5s-4,2-4,5v3c0,3.05,1.38,5,4,5s4-2,4-5Z"/><path class="cls-1" d="M203.73,14.65l-4.7,17a4.83,4.83,0,0,1-9.28,0l-4.7-17a.61.61,0,0,1,0-.26.59.59,0,0,1,.6-.6h3.73c.33,0,.63.26.74.75l3.58,15.62c.15.71.41.93.71.93s.56-.22.71-.93l3.58-15.62a.86.86,0,0,1,.78-.75h3.73a.59.59,0,0,1,.6.6A.61.61,0,0,1,203.73,14.65Z"/></svg>