<svg xmlns="http://www.w3.org/2000/svg" viewBox="0 0 258.37 43.21">
    <defs>
        <style>.cls-1{fill:#006f9e;}</style>
    </defs>
    <title>Element 6</title>
    <g id="Ebene_2" data-name="Ebene 2">
        <g id="Ebene_1-2" data-name="Ebene 1">
            <path class="cls-1"
                  d="M86.83,21.18H74.42V34.4a.8.8,0,0,1-.81.8H71.55a.81.81,0,0,1-.81-.8v-22c0-5.38,3-7.52,8.61-7.52,2.39,0,6.19.08,7.89.24a.58.58,0,0,1,.4.57v2a.43.43,0,0,1-.45.48h-7.8c-4.28,0-5,1.14-5,4.21V18H86.83a.8.8,0,0,1,.81.8v1.54A.81.81,0,0,1,86.83,21.18Z"/>
            <path class="cls-1"
                  d="M95.16,35.2h-2.1a.76.76,0,0,1-.73-.8V5.58a.73.73,0,0,1,.73-.77h2.1a.73.73,0,0,1,.72.77V34.4A.76.76,0,0,1,95.16,35.2Z"/>
            <path class="cls-1"
                  d="M109.34,35.49c-5.94,0-9-3.92-9-9.86V22.55c0-5.94,3-9.86,9-9.86s9,3.92,9,9.86v3.08C118.36,31.57,115.29,35.49,109.34,35.49Zm5.46-12.94c0-4.12-1.66-6.75-5.46-6.75s-5.41,2.59-5.41,6.75v3.08c0,4.12,1.61,6.75,5.41,6.75s5.46-2.59,5.46-6.75Z"/>
            <path class="cls-1"
                  d="M149.24,13.94,145.32,32.7c-.53,2.55-1,2.79-3.4,2.79-2.1,0-2.66-.37-3.31-2.91l-3.52-13.75c-.08-.28-.08-.28-.2-.28s-.12,0-.2.28l-3.52,13.75c-.6,2.34-1.21,2.91-3.31,2.91-2.43,0-2.87-.29-3.4-2.79l-3.92-18.76v-.16a.8.8,0,0,1,.77-.81h2.18a.74.74,0,0,1,.69.65l3.35,18.43c.08.49.21.49.33.49s.24-.12.32-.49l4-15.52a1.47,1.47,0,0,1,1.62-1.21H136a1.47,1.47,0,0,1,1.62,1.21l4,15.52c.08.37.2.49.32.49s.25,0,.33-.49l3.35-18.43a.74.74,0,0,1,.69-.65h2.18a.8.8,0,0,1,.77.81Z"/>
            <path class="cls-1"
                  d="M160.68,35.53a30.67,30.67,0,0,1-7.16-.73.86.86,0,0,1-.76-.81V31.08a.77.77,0,0,1,.76-.77h.08c1.62.21,5.66.41,7.16.41,3.6,0,4.69-1.3,4.69-3.64,0-1.58-.77-2.38-3.44-4l-5.33-3.19c-3.76-2.23-4.77-4.57-4.77-7.4,0-4.45,2.58-7.68,10.1-7.68a44.39,44.39,0,0,1,7.76.73.81.81,0,0,1,.73.76v3a.69.69,0,0,1-.69.72h-.08c-2.67-.24-5.33-.4-8-.4-3,0-4.24,1.05-4.24,2.87,0,1.33.68,2.14,3.31,3.6l4.85,2.7c4.45,2.47,5.62,5.06,5.62,8.25C171.31,31.16,168.76,35.53,160.68,35.53Z"/>
            <path class="cls-1"
                  d="M191.8,43.21h-3.72a.82.82,0,0,1-.81-.81V35.25a30.83,30.83,0,0,1-3.88.28c-6.5,0-9.66-3.84-9.66-10.15V22.27c0-6.31,3.16-10.15,9.66-10.15a34.34,34.34,0,0,1,8.13,1.06c.93.24,1.09.48,1.09,1.09V42.4A.82.82,0,0,1,191.8,43.21Zm-4.53-26.44a23.64,23.64,0,0,0-3.88-.28c-3.47,0-4.32,2.47-4.32,5.78v3.11c0,3.32.85,5.78,4.32,5.78a34.06,34.06,0,0,0,3.88-.28Z"/>
            <path class="cls-1"
                  d="M214.52,35.2H210.8a.8.8,0,0,1-.81-.8v-.93a10.45,10.45,0,0,1-6.35,2,6.89,6.89,0,0,1-5-1.7c-1.49-1.5-2-4-2-7.36V13.26a.85.85,0,0,1,.81-.85h3.72a.85.85,0,0,1,.81.85V26.43c0,2,.16,3.2.93,3.88a3.46,3.46,0,0,0,2.5.73A11.34,11.34,0,0,0,210,29.42V13.26a.84.84,0,0,1,.81-.85h3.72a.85.85,0,0,1,.81.85V34.4A.81.81,0,0,1,214.52,35.2Z"/>
            <path class="cls-1"
                  d="M235.45,35.2H232a.8.8,0,0,1-.81-.8v-.65a11,11,0,0,1-5.7,1.78c-3.35,0-7-1.3-7-6.75v-.16c0-4.61,2.83-7,9.86-7h2.55V19.84c0-2.62-1.17-3.27-3.56-3.27a64.56,64.56,0,0,0-6.59.32h-.2c-.4,0-.73-.12-.73-.68V13.62c0-.44.24-.73.77-.85a35.11,35.11,0,0,1,6.75-.65c5.74,0,8.89,2.55,8.89,7.72V34.4A.8.8,0,0,1,235.45,35.2Zm-4.52-10h-2.55c-3.68,0-4.49,1.17-4.49,3.44v.16c0,2,.89,2.5,2.91,2.5a8.82,8.82,0,0,0,4.13-1.13Z"/>
            <path class="cls-1"
                  d="M257.28,34.48a34.77,34.77,0,0,1-8.12,1.05c-6.51,0-9.66-3.84-9.66-10.15V22.27c0-6.31,3.15-10.15,9.66-10.15a31.23,31.23,0,0,1,3.88.29V5.25a.81.81,0,0,1,.81-.81h3.71a.81.81,0,0,1,.81.81V33.39C258.37,34,258.21,34.23,257.28,34.48ZM253,16.77a34.06,34.06,0,0,0-3.88-.28c-3.48,0-4.33,2.47-4.33,5.78v3.11c0,3.32.85,5.78,4.33,5.78a23.83,23.83,0,0,0,3.88-.28Z"/>
            <path class="cls-1"
                  d="M55.14,25.38H55l-.39,0-3.06-7.69a7.22,7.22,0,0,0,1-.79,7.57,7.57,0,0,0,.2-10.71A7.59,7.59,0,0,0,42.05,6a7.57,7.57,0,0,0-1.42,9L29.88,24.11a7.49,7.49,0,0,0-2.24-1.21l.64-5.76a5.88,5.88,0,0,0,3.31-9.88,5.78,5.78,0,0,0-4.13-1.8,5.88,5.88,0,0,0-2.3,11.33l-.65,5.77a7.54,7.54,0,0,0-4.31,1.89l-8.19-6a6,6,0,0,0,.44-2.16A6.23,6.23,0,0,0,6.34,10,6.25,6.25,0,0,0,0,16.08a6.23,6.23,0,0,0,6.11,6.34h.12A6.16,6.16,0,0,0,10.16,21l8.18,6a7.6,7.6,0,0,0-.66,3,7.58,7.58,0,0,0,7.43,7.71h.14a7.58,7.58,0,0,0,7.57-7.42,7.66,7.66,0,0,0-.9-3.72l10.74-9.07A7.55,7.55,0,0,0,47.17,19h.14a7.76,7.76,0,0,0,1.37-.12l3,7.64a5.27,5.27,0,0,0-1.94,4,5.28,5.28,0,0,0,5.16,5.37h.11a5.27,5.27,0,0,0,5.26-5.17,5.26,5.26,0,0,0-5.17-5.37Zm-11-10.84a4.44,4.44,0,0,1-1.24-3.16A4.44,4.44,0,0,1,47.31,7h.08a4.43,4.43,0,0,1,3,7.63,4.34,4.34,0,0,1-3.15,1.23A4.39,4.39,0,0,1,44.12,14.54ZM29.67,30.17a4.42,4.42,0,1,1-4.42-4.51h.08A4.43,4.43,0,0,1,29.67,30.17ZM25.38,13.23a2.71,2.71,0,0,1-.76-2A2.75,2.75,0,0,1,27.35,8.6h0a2.74,2.74,0,1,1-2,4.63Zm-19.21,6a3.08,3.08,0,0,1,.06-6.15h.06a3.08,3.08,0,1,1-.12,6.15ZM55,32.77a2.12,2.12,0,0,1,0-4.24h0A2.12,2.12,0,1,1,55,32.77Z"/>
            <circle class="cls-1" cx="59.82" cy="18.06" r="2.52" transform="translate(-2.66 16.94) rotate(-15.78)"/>
            <circle class="cls-1" cx="8.15" cy="29.7" r="3.31" transform="translate(-2.16 0.68) rotate(-4.21)"/>
            <path class="cls-1" d="M14.76,8.89a3,3,0,1,0-3-3.09A3,3,0,0,0,14.76,8.89Z"/>
            <circle class="cls-1" cx="36.04" cy="2.55" r="2.55"/>
            <circle class="cls-1" cx="42.14" cy="29.4" r="3.49" transform="translate(8.92 68.59) rotate(-84.62)"/>
        </g>
    </g>
</svg>